<svg version="1.1"
	 xmlns="http://www.w3.org/2000/svg" xmlns:xlink="http://www.w3.org/1999/xlink" xmlns:a="http://ns.adobe.com/AdobeSVGViewerExtensions/3.0/"
	 x="0px" y="0px" width="12px" height="20px" viewBox="0 0 12 20" style="enable-background:new 0 0 12 20;" xml:space="preserve">
<style type="text/css">
	.st0{fill:#FFFFFF;}
</style>
<path class="st0" d="M8.2,5.9C8.1,5.6,7.8,5.4,7.5,5.4S6.8,5.6,6.7,5.9H3v0.4h3.7C6.8,6.7,7.1,7,7.5,7s0.7-0.3,0.8-0.6H9V5.9H8.2z"
    />
<path class="st0" d="M4.5,8.4c-0.4,0-0.7,0.2-0.8,0.6H3v0.4h0.7C3.8,9.7,4.1,10,4.5,10s0.7-0.3,0.8-0.6H9V8.9H5.2
    C5.1,8.6,4.8,8.4,4.5,8.4z"/>
<path class="st0" d="M6.5,11.4c-0.4,0-0.7,0.2-0.8,0.6H3v0.4h2.7C5.8,12.7,6.1,13,6.5,13s0.7-0.3,0.8-0.6H9v-0.4H7.2
    C7.1,11.6,6.8,11.4,6.5,11.4z"/>
<path class="st0" d="M10,0L2,0C0.9,0,0,0.9,0,2v16c0,1.1,0.9,2,2,2h8c1.1,0,2-0.9,2-2V2C12,0.9,11.1,0,10,0z M6,19.2
	c-0.7,0-1.2-0.5-1.2-1.2s0.5-1.2,1.2-1.2s1.2,0.5,1.2,1.2S6.7,19.2,6,19.2z M10,16H2V4h8V16z"/>
</svg>
